<svg width="600" height="60" viewBox="0 0 600 60" fill="none" xmlns="http://www.w3.org/2000/svg">
  <rect width="600" height="60" fill="#F7F9FC"/>
  <path d="M0 60 L0 40 L30 40 L30 30 L60 30 L60 50 L90 50 L90 20 L120 20 L120 45 L150 45 L150 35 L180 35 L180 55 L210 55 L210 25 L240 25 L240 50 L270 50 L270 40 L300 40 L300 60 Z" fill="#0A2540"/>
  <path d="M300 60 L300 30 L330 30 L330 50 L360 50 L360 20 L390 20 L390 45 L420 45 L420 35 L450 35 L450 55 L480 55 L480 25 L510 25 L510 50 L540 50 L540 40 L570 40 L570 60 Z" fill="#3A8DDE"/>
</svg> 